<?xml version="1.0" encoding="utf-8"?>
<!-- Generator: Adobe Illustrator 23.0.2, SVG Export Plug-In . SVG Version: 6.00 Build 0)  -->
<svg version="1.1" id="レイヤー_1" xmlns="http://www.w3.org/2000/svg" xmlns:xlink="http://www.w3.org/1999/xlink" x="0px"
	 y="0px" viewBox="0 0 102.5 105.1" style="enable-background:new 0 0 102.5 105.1;" xml:space="preserve">
<style type="text/css">
	.st0{fill:#FFFFFF;}
</style>
<title>アセット 14logo_icon</title>
<g>
	<g id="レイヤー_1-2">
		<path class="st0" d="M80.4,82.1c0,0-4.8,0.8-6.9,3.5c-9.2,11.2-21.8,15.8-35.2,15.8c-27.9,0-41.8-23.7-37.6-49.9
			C5,24.4,26,1.1,54.5,1.1c12.9,0,23.6,6.1,29.9,16.2c1.9,3.1,4.4,6.5,5.5,10L80.4,82.1z M17.5,50.3c-3,18.6,5.3,36.2,25.5,36.2
			c20.8,0,34.4-16.8,37.4-36c3-19-6.5-34.4-26.5-34.4C35.1,16.1,20.4,32.5,17.5,50.3L17.5,50.3z"/>
		<path class="st0" d="M96.7,0.1c-3.7-0.6-7.2,2-7.8,5.7c-0.4,2.4,0.5,4.7,2.4,6.3l-10.8,69l-9.3-38.5c2.7-2.6,2.7-7,0.1-9.7
			s-7-2.7-9.7-0.1c-1.7,1.7-2.4,4.2-1.9,6.5c0.2,0.7,0.5,1.4,0.9,2.1l-10.5,24h-0.3l-7.8-9.1c1.2-3.6-0.7-7.5-4.3-8.7
			c-3.6-1.2-7.5,0.7-8.7,4.3c-0.3,0.8-0.4,1.7-0.4,2.6l-5.6,3.8c-3.4-1.6-7.5-0.2-9.1,3.2s-0.2,7.5,3.2,9.1c3.4,1.6,7.5,0.2,9.1-3.2
			c0.5-1,0.7-2.2,0.7-3.3l5.6-3.7c1.3,0.6,2.7,0.8,4.1,0.6l7.8,9.1c-1.2,3.6,0.6,7.5,4.2,8.7c3.6,1.2,7.5-0.6,8.7-4.2
			c0.7-2.1,0.4-4.4-0.9-6.3l8.7-20l11,45.5c-2.6,2.8-2.4,7.1,0.4,9.7c2.8,2.6,7.1,2.4,9.7-0.4c2.6-2.8,2.4-7.1-0.4-9.7
			c-0.1-0.1-0.2-0.2-0.3-0.2l12.5-79.8c3.5-1.4,5.2-5.4,3.8-8.9C101.1,2.1,99.1,0.5,96.7,0.1z"/>
	</g>
</g>
</svg>
