<?xml version="1.0" encoding="utf-8"?>
<!-- Generator: Adobe Illustrator 23.0.2, SVG Export Plug-In . SVG Version: 6.00 Build 0)  -->
<svg version="1.1" id="レイヤー_1" xmlns="http://www.w3.org/2000/svg" xmlns:xlink="http://www.w3.org/1999/xlink" x="0px"
	 y="0px" viewBox="0 0 652.3 173.1" style="enable-background:new 0 0 652.3 173.1;" xml:space="preserve">
<style type="text/css">
	.st0{fill:#92413B;}
	.st1{fill:#4D617C;}
</style>
<title>アセット 15logo</title>
<g>
	<g id="レイヤー_1-2">
		<path class="st0" d="M141.8,83.3h0.4c8.3-9.1,17.8-14.2,29.5-14.2c26.3,0,29.3,19,25.7,41.2l-8.9,56.4h-16.2l8.5-53.6
			c2.4-15.4,3.4-29.1-15.4-29.1c-22.2,0-26.9,20.6-29.7,37.6l-7.1,45.1h-16.2l15-95h16.2L141.8,83.3z"/>
		<path class="st0" d="M244.3,106.9l40-35.2H306l-46.9,40.4l39.6,54.6h-21.4L246,123.5l-4.9,4.2l-6.3,39h-16.2L245.1,0h16.2
			L244.3,106.9z"/>
		<path class="st0" d="M332.1,122.7c-2.6,17.6,7.7,31.7,26.1,31.7c13.7,0,23.9-8.3,31.9-19.6l12.5,7.9c-11.7,17-28.7,26.7-48.1,26.7
			c-28.3,0-43-21.6-38.8-48.9c4.4-28.1,24.6-51.3,54.4-51.3c30.5,0,42.6,25.3,36.6,53.6L332.1,122.7z M391.7,108.9
			c0-13.7-9.7-24.9-23.9-24.9c-13.9,0-28.7,11.1-32.9,24.9H391.7z"/>
		<path class="st0" d="M476,110.6l-2.4,15h-41.4l2.4-15H476z"/>
		<path class="st0" d="M513.2,166.7H497l12.7-80h-9.9l2.2-15h9.9l5.5-34.2h16.1l-5.5,34.2h17l-2.2,15h-17L513.2,166.7z"/>
		<path class="st0" d="M551.8,119.4c4.5-27.9,30.1-50.3,58-50.3s46.3,22.4,41.8,50.3s-30.1,49.9-57.8,49.9S547.3,147.3,551.8,119.4z
			 M567.9,119.2c-3,19.4,8.3,35.2,28.3,35.2s36.2-15.8,39.2-35.2c3-19.2-8.1-35.2-28.1-35.2S571,100,567.9,119.2z"/>
		<path class="st0" d="M80.4,150.1c0,0-4.8,0.9-6.9,3.5c-9.2,11.1-21.8,15.8-35.2,15.8c-27.9,0-41.8-23.6-37.6-49.9
			C5,92.4,26,69.1,54.5,69.1c12.9,0,23.6,6.1,29.9,16.2c1.9,3.1,4.4,6.5,5.5,10L80.4,150.1z M17.5,118.3c-3,18.6,5.3,36.2,25.5,36.2
			c20.8,0,34.4-16.8,37.4-36c3-19-6.5-34.4-26.5-34.4C35.1,84.1,20.4,100.4,17.5,118.3L17.5,118.3z"/>
		<path class="st1" d="M96.7,68.1c-3.7-0.6-7.2,2-7.8,5.7c-0.4,2.4,0.5,4.8,2.4,6.3l-10.8,69l-9.3-38.5c2.7-2.6,2.7-7,0.1-9.7
			s-7-2.7-9.7-0.1c-1.7,1.7-2.4,4.2-1.9,6.5c0.2,0.7,0.5,1.4,0.9,2.1l-10.5,24h-0.3l-7.8-9.1c1.2-3.6-0.7-7.5-4.3-8.7
			c-3.6-1.2-7.5,0.7-8.7,4.3c-0.3,0.8-0.4,1.7-0.4,2.6l-5.6,3.8c-3.4-1.6-7.5-0.2-9.1,3.2c-1.6,3.4-0.2,7.5,3.2,9.1s7.5,0.2,9.1-3.2
			c0.5-1,0.7-2.1,0.7-3.3l5.6-3.8c1.3,0.6,2.7,0.8,4.1,0.6l7.8,9.1c-1.2,3.6,0.6,7.5,4.2,8.7c3.6,1.2,7.5-0.6,8.7-4.2
			c0.7-2.1,0.4-4.4-0.9-6.3l8.7-20l11,45.5c-2.6,2.8-2.4,7.1,0.4,9.7c2.8,2.6,7.1,2.4,9.7-0.4c2.6-2.8,2.4-7.1-0.4-9.7
			c-0.1-0.1-0.2-0.2-0.3-0.2l12.5-79.8c3.5-1.4,5.2-5.4,3.8-8.9C101.2,70,99.1,68.4,96.7,68.1z"/>
	</g>
</g>
</svg>
